<svg width="180" height="52" xmlns="http://www.w3.org/2000/svg" xmlns:xlink="http://www.w3.org/1999/xlink"><defs><path id="a" d="M0 .967h52.035V53H0z"/><path id="c" d="M0 53.033h179.393V1H0z"/></defs><g transform="translate(0 -1)" fill="none" fill-rule="evenodd"><g transform="translate(0 .033)"><mask id="b" fill="#fff"><use xlink:href="#a"/></mask><path d="M52.035 44.328A8.671 8.671 0 0 1 43.362 53H8.672A8.67 8.67 0 0 1 0 44.328V9.64A8.671 8.671 0 0 1 8.672.967h34.69a8.672 8.672 0 0 1 8.673 8.672v34.69z" fill="#71B62D" mask="url(#b)"/></g><path d="M37.102 30.182c-4.171 0-7.555 3.535-7.555 7.9 0 4.364 3.384 7.903 7.555 7.903 4.172 0 7.556-3.54 7.556-7.903 0-4.365-3.384-7.9-7.556-7.9" fill="#FEFEFE"/><path d="M32.11 48.668h-4.915c-2.535-2.977-4.503-6.227-5.904-9.744-1.403-3.52-2.106-7.49-2.106-11.907 0-4.414.703-8.383 2.106-11.904 1.4-3.52 3.369-6.767 5.904-9.745h4.915v.219a27.874 27.874 0 0 0-3.317 3.707c-1.053 1.402-2.031 3.034-2.93 4.896-.858 1.804-1.555 3.792-2.093 5.962-.536 2.173-.806 4.458-.806 6.865 0 2.51.26 4.807.784 6.887a32.163 32.163 0 0 0 2.116 5.942 28.182 28.182 0 0 0 2.94 4.896c1.099 1.459 2.204 2.694 3.306 3.707v.219z" fill="#FEFEFE"/><path d="M4.893 32.603l.002-5.039c2.906-2.593 6.08-4.608 9.515-6.044 3.433-1.436 7.305-2.151 11.614-2.15 4.306.002 8.18.723 11.614 2.162 3.432 1.439 6.6 3.459 9.504 6.055l-.004 5.042h-.212a27.286 27.286 0 0 0-3.616-3.402c-1.365-1.08-2.957-2.082-4.774-3.009-1.76-.88-3.7-1.595-5.817-2.148-2.119-.552-4.35-.826-6.696-.829-2.447 0-4.688.265-6.72.803a30.148 30.148 0 0 0-5.8 2.162 27.337 27.337 0 0 0-4.776 3.01c-1.426 1.13-2.632 2.258-3.62 3.392l-.214-.005z" fill="#FEFEFE"/><path d="M69.077 13.786h-4.691v6.45h4.69c2.055 0 3.51-1.062 3.51-3.214s-1.455-3.236-3.51-3.236zm3.534 15.92l-4.001-7.813h-4.224v7.812h-1.881V12.101h6.746c3.062 0 5.212 1.856 5.212 4.895 0 2.575-1.556 4.254-3.83 4.726l4.173 7.983H72.61zm12.805-8.973c-.472-1.113-1.558-1.832-2.841-1.832-1.284 0-2.374.719-2.844 1.832-.272.667-.32 1.038-.37 2.026h6.421c-.047-.988-.099-1.36-.365-2.026zm-6.055 3.359c0 2.67 1.26 4.205 3.584 4.205 1.408 0 2.22-.424 3.187-1.386l1.206 1.062c-1.232 1.236-2.372 1.882-4.447 1.882-3.207 0-5.31-1.931-5.31-6.23 0-3.93 1.906-6.231 4.993-6.231 3.135 0 4.99 2.276 4.99 5.884v.814H79.36zm14.307-5.115v10.729H91.89v-10.73h-1.56v-1.358h1.56v-2.302c0-1.803 1.009-3.262 3.087-3.262h1.285v1.534h-.965c-1.137 0-1.629.666-1.629 1.779v2.25h2.594v1.36h-2.594zm8.523 10.728c-2.124 0-3.086-1.384-3.086-3.24V12.101h1.774v14.291c0 1.186.397 1.778 1.63 1.778h.97v1.535h-1.288zm22.216.15c-3.063 0-5.386-2.078-5.386-6.23 0-4.154 2.323-6.23 5.386-6.23 1.677 0 2.738.445 4.004 1.803l-1.212 1.137c-.915-1.012-1.638-1.358-2.792-1.358-1.19 0-2.178.47-2.82 1.383-.567.793-.79 1.729-.79 3.265 0 1.53.223 2.47.79 3.26.642.917 1.63 1.385 2.82 1.385 1.154 0 1.877-.372 2.792-1.386l1.212 1.165c-1.266 1.36-2.327 1.806-4.004 1.806m11.383-.15c-2.076 0-3.114-1.46-3.114-3.26v-7.469h-1.535v-1.358h1.535V13.81h1.777v3.81h2.596v1.357h-2.596v7.416c0 1.114.52 1.778 1.655 1.778h.941v1.535h-1.259z" fill="#12110C"/><mask id="d" fill="#fff"><use xlink:href="#c"/></mask><path d="M140 29.705h1.774v-12.16H140v12.16zm-.103-15.625h2.001v-2.002h-2.001v2.002zm11.878 5.788c-.568-.57-1.358-.892-2.223-.892-.86 0-1.63.322-2.202.892-.892.886-.987 2.395-.987 3.756 0 1.358.095 2.868.987 3.757a3.085 3.085 0 0 0 2.202.89c.865 0 1.655-.323 2.223-.89.89-.889.965-2.399.965-3.757 0-1.36-.075-2.87-.965-3.756m1.262 8.601c-.842.84-2.005 1.385-3.485 1.385-1.483 0-2.642-.546-3.483-1.385-1.238-1.26-1.484-2.966-1.484-4.845 0-1.878.246-3.586 1.484-4.844.841-.842 2-1.386 3.483-1.386 1.48 0 2.643.544 3.485 1.386 1.231 1.258 1.482 2.966 1.482 4.844 0 1.88-.25 3.584-1.482 4.845m12.098 1.236v-7.49c0-2.153-1.16-3.239-2.99-3.239-1.83 0-3.01 1.112-3.01 3.238v7.491h-1.781v-12.16h1.782v1.328c.863-.985 2.044-1.479 3.408-1.479 1.307 0 2.374.397 3.113 1.137.866.841 1.256 1.978 1.256 3.386v7.788h-1.778zm9.253.15c-2.048 0-3.655-.473-4.988-1.758l1.184-1.187c.966 1.014 2.275 1.412 3.779 1.412 2.003 0 3.237-.718 3.237-2.151 0-1.066-.62-1.659-2.023-1.781l-2.004-.175c-2.37-.198-3.631-1.259-3.631-3.264 0-2.224 1.877-3.556 4.468-3.556 1.732 0 3.29.418 4.377 1.31l-1.162 1.164c-.864-.67-1.974-.968-3.237-.968-1.781 0-2.718.768-2.718 2.003 0 1.038.594 1.659 2.125 1.779l1.953.172c2.12.2 3.583 1.014 3.583 3.29 0 2.35-2.001 3.71-4.943 3.71" fill="#12110C" mask="url(#d)"/><path d="M108.001 22.71h6.428c-.047-.988-.098-1.361-.37-2.027-.468-1.112-1.557-1.828-2.841-1.828-1.282 0-2.369.716-2.839 1.828-.275.666-.324 1.039-.378 2.027zm-1.771 1.336v-.817c0-3.609 1.85-5.885 4.988-5.885 3.091 0 4.993 2.303 4.993 6.23 0 4.301-2.103 6.231-5.314 6.231-2.08 0-3.21-.643-4.449-1.881l1.209-1.059c.966.961 1.782 1.38 3.187 1.38 2.325 0 3.585-1.531 3.585-4.199h-8.199z" fill="#71B62D" mask="url(#d)"/><path fill="#12110C" mask="url(#d)" d="M62.352 40.314h.35v-5.03h-.35zm8.779-4.302c-.266-.297-.623-.39-.993-.39h-1.115v4.353h1.115c.37 0 .727-.092.993-.39.37-.41.343-1.298.343-1.856 0-.56.027-1.307-.343-1.717m.246 3.844c-.272.297-.674.459-1.154.459h-1.55v-5.032h1.55c.48 0 .882.165 1.154.459.467.51.448 1.309.448 1.987 0 .678.02 1.617-.448 2.127m6.24.459v-5.032h2.8v.34h-2.45v1.985h2.088v.34h-2.088v2.026h2.45v.34zm9.663-4.522l-.966 2.959h1.932l-.966-2.959zm1.479 4.521l-.403-1.222h-2.153l-.402 1.222h-.376l1.699-5.031h.31l1.7 5.031h-.375zm6.886.041c-.686 0-1.114-.202-1.536-.663l.247-.269c.413.453.752.594 1.31.594.725 0 1.186-.38 1.186-1.039 0-.297-.085-.543-.254-.706-.168-.154-.291-.206-.668-.268l-.538-.091c-.35-.057-.629-.184-.823-.368-.246-.227-.362-.538-.362-.925 0-.84.55-1.377 1.431-1.377.57 0 .935.167 1.33.542l-.227.248c-.284-.276-.57-.467-1.121-.467-.669 0-1.072.402-1.072 1.04 0 .288.078.508.242.655.161.15.426.27.686.311l.5.086c.436.07.63.154.823.332.253.224.403.572.403.974 0 .849-.596 1.392-1.556 1.392m16.924-.041v-4.148l-1.4 3.44h-.352l-1.427-3.44v4.148h-.35v-5.032h.35l1.61 3.88 1.568-3.88h.351v5.032zm7.563-4.522l-.967 2.959h1.933l-.966-2.959zm1.479 4.521l-.403-1.222h-2.153l-.402 1.222h-.375l1.698-5.031h.31l1.7 5.031h-.375zm8.19-4.302c-.266-.297-.622-.39-.992-.39h-1.115v4.353h1.115c.37 0 .726-.092.992-.39.37-.41.344-1.298.344-1.856 0-.56.026-1.307-.344-1.717m.247 3.844c-.272.297-.675.459-1.154.459h-1.551v-5.032h1.55c.48 0 .883.165 1.155.459.467.51.447 1.309.447 1.987 0 .678.02 1.617-.447 2.127m6.238.459v-5.032h2.802v.34h-2.45v1.985h2.086v.34h-2.087v2.026h2.451v.34zm16.335-4.692h-1.362v2.035h1.362c.59 0 1.018-.326 1.018-1.017 0-.694-.428-1.018-1.018-1.018zm1.012 4.691l-1.103-2.318h-1.27v2.318h-.352v-5.03h1.758c.752 0 1.323.474 1.323 1.35 0 .75-.415 1.235-1.063 1.356l1.115 2.324h-.408zm6.083.001v-5.032h2.802v.34h-2.451v1.985h2.087v.34h-2.087v2.026h2.45v.34zm9.663-4.522l-.967 2.959h1.933l-.966-2.959zm1.479 4.521l-.403-1.222h-2.153l-.402 1.222h-.375l1.698-5.031h.31l1.7 5.031h-.375zm5.731.001v-5.032h.352v4.691h2.45v.34z"/></g></svg>